<?xml version="1.0" encoding="iso-8859-1"?>
<!-- Generator: Adobe Illustrator 19.0.0, SVG Export Plug-In . SVG Version: 6.00 Build 0)  -->
<svg version="1.1" id="Layer_1" xmlns="http://www.w3.org/2000/svg" xmlns:xlink="http://www.w3.org/1999/xlink" x="0px" y="0px"
	 viewBox="0 0 512 512" style="enable-background:new 0 0 512 512;" xml:space="preserve">
<g>
	<g>
		<path d="M512,134.763h-60.575c-16.976-32.567-38.664-58.735-64.678-77.907C351.042,30.542,307.052,17.2,256,17.2
			s-95.042,13.342-130.747,39.656c-26.015,19.172-47.702,45.341-64.678,77.907H0v219.074h15.625
			c-0.405,56.4,5.405,97.252,5.674,99.114l2.071,14.302h153.466c24.434,18.107,51.347,27.548,79.162,27.548
			s54.729-9.441,79.163-27.548h153.465l2.071-14.302c0.269-1.862,6.081-42.713,5.674-99.114H512V134.763z M145.063,83.735
			C174.907,61.742,212.231,50.591,256,50.591s81.093,11.152,110.937,33.144c17.696,13.042,33.129,30.136,46.115,51.027H98.948
			C111.934,113.872,127.367,96.778,145.063,83.735z M52.681,433.86c-1.654-16.302-3.909-45.236-3.662-80.023h49.302
			c10.904,30.214,26.085,57.781,44.087,80.023H52.681z M256,461.409c-35.395,0-62.667-21.195-79.312-38.975
			c-16.955-18.11-31.608-41.845-42.586-68.597h78.523L256,307.389l43.375,46.447h78.524c-10.978,26.753-25.633,50.489-42.588,68.599
			C318.665,440.215,291.395,461.409,256,461.409z M459.319,433.861h-89.727c18.001-22.242,33.183-49.809,44.087-80.023h49.301
			C463.228,388.626,460.971,417.562,459.319,433.861z M478.609,320.445H313.879L256,258.465l-57.879,61.98H33.391V168.154h445.217
			V320.445z"/>
	</g>
</g>
<g>
	<g>
		<rect x="209.497" y="368.74" width="93.017" height="33.391"/>
	</g>
</g>
<g>
</g>
<g>
</g>
<g>
</g>
<g>
</g>
<g>
</g>
<g>
</g>
<g>
</g>
<g>
</g>
<g>
</g>
<g>
</g>
<g>
</g>
<g>
</g>
<g>
</g>
<g>
</g>
<g>
</g>
</svg>
