<?xml version="1.0" encoding="iso-8859-1"?>
<!-- Generator: Adobe Illustrator 18.0.0, SVG Export Plug-In . SVG Version: 6.00 Build 0)  -->
<!DOCTYPE svg PUBLIC "-//W3C//DTD SVG 1.1//EN" "http://www.w3.org/Graphics/SVG/1.1/DTD/svg11.dtd">
<svg version="1.1" id="Capa_1" xmlns="http://www.w3.org/2000/svg" xmlns:xlink="http://www.w3.org/1999/xlink" x="0px" y="0px"
	 viewBox="0 0 486.762 486.762" style="enable-background:new 0 0 486.762 486.762;" xml:space="preserve">
<g>
	<path d="M368.637,255.106c-30.056,0-54.508,24.452-54.508,54.508c0,30.056,24.452,54.508,54.508,54.508
		c30.056,0,54.508-24.452,54.508-54.508C423.145,279.559,398.692,255.106,368.637,255.106z M368.637,350.122
		c-22.336,0-40.508-18.172-40.508-40.508c0-22.336,18.172-40.508,40.508-40.508c22.336,0,40.508,18.172,40.508,40.508
		C409.145,331.95,390.973,350.122,368.637,350.122z"/>
	<path d="M113.877,255.106c-30.056,0-54.508,24.452-54.508,54.508c0,30.056,24.452,54.508,54.508,54.508
		s54.507-24.452,54.507-54.508C168.384,279.559,143.933,255.106,113.877,255.106z M113.877,350.122
		c-22.336,0-40.508-18.172-40.508-40.508c0-22.336,18.172-40.508,40.508-40.508s40.507,18.172,40.507,40.508
		C154.384,331.95,136.213,350.122,113.877,350.122z"/>
	<path d="M113.877,287.983c-11.927,0-21.63,9.703-21.63,21.631c0,11.928,9.703,21.631,21.63,21.631
		c11.926,0,21.629-9.703,21.629-21.631C135.506,297.687,125.803,287.983,113.877,287.983z"/>
	<path d="M368.637,287.983c-11.927,0-21.631,9.703-21.631,21.631c0,11.928,9.704,21.631,21.631,21.631
		c11.927,0,21.63-9.703,21.63-21.631C390.267,297.687,380.564,287.983,368.637,287.983z"/>
	<path d="M266.432,109.7c-1.318-1.808-3.42-2.877-5.657-2.877H157.544c-1.97,0-3.849,0.83-5.175,2.286
		c-1.327,1.456-1.978,3.404-1.795,5.365l7.207,77.107c0.336,3.598,3.356,6.349,6.97,6.349H316.98c2.634,0,5.045-1.479,6.24-3.827
		c1.194-2.348,0.969-5.167-0.583-7.296L266.432,109.7z M168.839,159.457l79.792,24.474h-77.504L168.839,159.457z"/>
	<path d="M183.018,211.374h-17.689c-3.866,0-7,3.134-7,7c0,3.866,3.134,7,7,7h17.689c3.866,0,7-3.134,7-7
		C190.018,214.508,186.884,211.374,183.018,211.374z"/>
	<path d="M479.762,254.464h-15.389l-11.04-44.351c-0.592-2.38-2.386-4.275-4.729-4.998l-86.906-26.817l-64.726-82.241
		c-0.021-0.026,0.021,0.025,0,0l0,0c-10.936-13.297-27.083-20.923-44.303-20.923H74.371c-12.685,0-23.004,10.32-23.004,23.006
		c0,6.939,3.093,13.167,7.969,17.389L30.94,183.931c0,0-5.415,0-5.421,0l0,0c-0.036,0,0.034-0.001,0,0
		c-2.878,0.04-5.549,1.864-6.528,4.745c-5.925,17.409-8.929,35.723-8.929,54.433v35.6H7c-3.866,0-7,3.134-7,7c0,3.866,3.134,7,7,7
		h3.062v16.906c0,3.866,3.134,7,7,7h25.997c3.866,0,7-3.134,7-7c0-35.189,28.629-63.818,63.818-63.818
		c35.189,0,63.818,28.629,63.818,63.818v11.174c0,3.866,3.134,7,7,7h113.121c3.866,0,7-3.134,7-7v-11.174
		c0-35.189,28.63-63.818,63.82-63.818c35.189,0,63.818,28.629,63.818,63.818c0,3.866,3.134,7,7,7h40.307c3.866,0,7-3.134,7-7v-48.15
		C486.762,257.598,483.628,254.464,479.762,254.464z M69.262,128.129l54.896,19.292l3.413,36.51H46.097L69.262,128.129z
		 M368.637,231.796c-42.91,0-77.82,34.909-77.82,77.818v4.174h-83.193l-10.015-21.08h79.39c3.866,0,7-3.134,7-7c0-3.866-3.134-7-7-7
		h-91.72c-11.982-27.574-39.47-46.912-71.401-46.912c-40.549,0-73.955,31.178-77.506,70.818H24.062v-59.506
		c0-15.479,2.245-30.65,6.663-45.178h104.532c1.97,0,3.849-0.83,5.175-2.286c1.327-1.456,1.978-3.404,1.795-5.365l-6.464-69.155
		c3.688-0.198,6.62-3.242,6.62-6.98c0-3.866-3.134-7-7-7h-61.01c-4.965,0-9.004-4.039-9.004-9.004c0-4.966,4.04-9.006,9.004-9.006
		h178.298c13.017,0,25.224,5.765,33.458,15.776l65.918,83.762c0.879,1.117,2.078,1.941,3.437,2.359l85.219,26.297l9.245,37.14
		h-26.47C409.397,240.467,390.013,231.796,368.637,231.796z M472.762,302.614h-26.619c-1.116-12.453-5.181-24.068-11.485-34.147
		l38.104-0.004V302.614z"/>
</g>
<rect x="405.381" y="411.628" width="1" height="0"/>
<g>
</g>
<g>
</g>
<g>
</g>
<g>
</g>
<g>
</g>
<g>
</g>
<g>
</g>
<g>
</g>
<g>
</g>
<g>
</g>
<g>
</g>
<g>
</g>
<g>
</g>
<g>
</g>
<g>
</g>
</svg>
